<svg id="visual" viewBox="0 0 960 540" width="960" height="540" xmlns="http://www.w3.org/2000/svg" xmlns:xlink="http://www.w3.org/1999/xlink" version="1.1"><path d="M0 87L14.5 88C29 89 58 91 87.2 85.7C116.3 80.3 145.7 67.7 174.8 58.7C204 49.7 233 44.3 262 44.3C291 44.3 320 49.7 349 53.2C378 56.7 407 58.3 436.2 54.7C465.3 51 494.7 42 523.8 37.5C553 33 582 33 611 41.2C640 49.3 669 65.7 698 67.5C727 69.3 756 56.7 785.2 52.2C814.3 47.7 843.7 51.3 872.8 58.5C902 65.7 931 76.3 945.5 81.7L960 87L960 0L945.5 0C931 0 902 0 872.8 0C843.7 0 814.3 0 785.2 0C756 0 727 0 698 0C669 0 640 0 611 0C582 0 553 0 523.8 0C494.7 0 465.3 0 436.2 0C407 0 378 0 349 0C320 0 291 0 262 0C233 0 204 0 174.8 0C145.7 0 116.3 0 87.2 0C58 0 29 0 14.5 0L0 0Z" fill="#212d46"></path><path d="M0 320L14.5 304.7C29 289.3 58 258.7 87.2 248.7C116.3 238.7 145.7 249.3 174.8 250.2C204 251 233 242 262 245.7C291 249.3 320 265.7 349 260.3C378 255 407 228 436.2 211.8C465.3 195.7 494.7 190.3 523.8 183.2C553 176 582 167 611 181.3C640 195.7 669 233.3 698 233.3C727 233.3 756 195.7 785.2 183C814.3 170.3 843.7 182.7 872.8 196.2C902 209.7 931 224.3 945.5 231.7L960 239L960 85L945.5 79.7C931 74.3 902 63.7 872.8 56.5C843.7 49.3 814.3 45.7 785.2 50.2C756 54.7 727 67.3 698 65.5C669 63.7 640 47.3 611 39.2C582 31 553 31 523.8 35.5C494.7 40 465.3 49 436.2 52.7C407 56.3 378 54.7 349 51.2C320 47.7 291 42.3 262 42.3C233 42.3 204 47.7 174.8 56.7C145.7 65.7 116.3 78.3 87.2 83.7C58 89 29 87 14.5 86L0 85Z" fill="#171e2e"></path><path d="M0 379L14.5 368.2C29 357.3 58 335.7 87.2 329.3C116.3 323 145.7 332 174.8 325.7C204 319.3 233 297.7 262 298.7C291 299.7 320 323.3 349 324.3C378 325.3 407 303.7 436.2 291.8C465.3 280 494.7 278 523.8 266.3C553 254.7 582 233.3 611 240.7C640 248 669 284 698 292C727 300 756 280 785.2 272.7C814.3 265.3 843.7 270.7 872.8 280.7C902 290.7 931 305.3 945.5 312.7L960 320L960 237L945.5 229.7C931 222.3 902 207.7 872.8 194.2C843.7 180.7 814.3 168.3 785.2 181C756 193.7 727 231.3 698 231.3C669 231.3 640 193.7 611 179.3C582 165 553 174 523.8 181.2C494.7 188.3 465.3 193.7 436.2 209.8C407 226 378 253 349 258.3C320 263.7 291 247.3 262 243.7C233 240 204 249 174.8 248.2C145.7 247.3 116.3 236.7 87.2 246.7C58 256.7 29 287.3 14.5 302.7L0 318Z" fill="#0a0e17"></path><path d="M0 476L14.5 472.5C29 469 58 462 87.2 460.2C116.3 458.3 145.7 461.7 174.8 456.2C204 450.7 233 436.3 262 433.7C291 431 320 440 349 451.7C378 463.3 407 477.7 436.2 484.8C465.3 492 494.7 492 523.8 485.8C553 479.7 582 467.3 611 462C640 456.7 669 458.3 698 451C727 443.7 756 427.3 785.2 425.5C814.3 423.7 843.7 436.3 872.8 449.8C902 463.3 931 477.7 945.5 484.8L960 492L960 318L945.5 310.7C931 303.3 902 288.7 872.8 278.7C843.7 268.7 814.3 263.3 785.2 270.7C756 278 727 298 698 290C669 282 640 246 611 238.7C582 231.3 553 252.7 523.8 264.3C494.7 276 465.3 278 436.2 289.8C407 301.7 378 323.3 349 322.3C320 321.3 291 297.7 262 296.7C233 295.7 204 317.3 174.8 323.7C145.7 330 116.3 321 87.2 327.3C58 333.7 29 355.3 14.5 366.2L0 377Z" fill="#080d15"></path><path d="M0 541L14.5 541C29 541 58 541 87.2 541C116.3 541 145.7 541 174.8 541C204 541 233 541 262 541C291 541 320 541 349 541C378 541 407 541 436.2 541C465.3 541 494.7 541 523.8 541C553 541 582 541 611 541C640 541 669 541 698 541C727 541 756 541 785.2 541C814.3 541 843.7 541 872.8 541C902 541 931 541 945.5 541L960 541L960 490L945.5 482.8C931 475.7 902 461.3 872.8 447.8C843.7 434.3 814.3 421.7 785.2 423.5C756 425.3 727 441.7 698 449C669 456.3 640 454.7 611 460C582 465.3 553 477.7 523.8 483.8C494.7 490 465.3 490 436.2 482.8C407 475.7 378 461.3 349 449.7C320 438 291 429 262 431.7C233 434.3 204 448.7 174.8 454.2C145.7 459.7 116.3 456.3 87.2 458.2C58 460 29 467 14.5 470.5L0 474Z" fill="#070b13"></path></svg>