<svg id="visual" viewBox="0 0 960 540" width="960" height="540" xmlns="http://www.w3.org/2000/svg" xmlns:xlink="http://www.w3.org/1999/xlink" version="1.1"><rect x="0" y="0" width="960" height="540" fill="#001220"></rect><path d="M0 140L16 153.5C32 167 64 194 96 198.3C128 202.7 160 184.3 192 166.8C224 149.3 256 132.7 288 144.8C320 157 352 198 384 219C416 240 448 241 480 236.2C512 231.3 544 220.7 576 206.3C608 192 640 174 672 179.3C704 184.7 736 213.3 768 217.2C800 221 832 200 864 183.8C896 167.7 928 156.3 944 150.7L960 145L960 541L944 541C928 541 896 541 864 541C832 541 800 541 768 541C736 541 704 541 672 541C640 541 608 541 576 541C544 541 512 541 480 541C448 541 416 541 384 541C352 541 320 541 288 541C256 541 224 541 192 541C160 541 128 541 96 541C64 541 32 541 16 541L0 541Z" fill="#6976fa"></path><path d="M0 203L16 196.5C32 190 64 177 96 171.7C128 166.3 160 168.7 192 170.7C224 172.7 256 174.3 288 173.5C320 172.7 352 169.3 384 181C416 192.7 448 219.3 480 230.5C512 241.7 544 237.3 576 226.3C608 215.3 640 197.7 672 203.8C704 210 736 240 768 238.8C800 237.7 832 205.3 864 201.7C896 198 928 223 944 235.5L960 248L960 541L944 541C928 541 896 541 864 541C832 541 800 541 768 541C736 541 704 541 672 541C640 541 608 541 576 541C544 541 512 541 480 541C448 541 416 541 384 541C352 541 320 541 288 541C256 541 224 541 192 541C160 541 128 541 96 541C64 541 32 541 16 541L0 541Z" fill="#646ff5"></path><path d="M0 221L16 219C32 217 64 213 96 226C128 239 160 269 192 273.2C224 277.3 256 255.7 288 238.8C320 222 352 210 384 220.7C416 231.3 448 264.7 480 280.3C512 296 544 294 576 274.7C608 255.3 640 218.7 672 200.3C704 182 736 182 768 190C800 198 832 214 864 222.5C896 231 928 232 944 232.5L960 233L960 541L944 541C928 541 896 541 864 541C832 541 800 541 768 541C736 541 704 541 672 541C640 541 608 541 576 541C544 541 512 541 480 541C448 541 416 541 384 541C352 541 320 541 288 541C256 541 224 541 192 541C160 541 128 541 96 541C64 541 32 541 16 541L0 541Z" fill="#5f67f1"></path><path d="M0 240L16 235.8C32 231.7 64 223.3 96 219C128 214.7 160 214.3 192 222.8C224 231.3 256 248.7 288 253.7C320 258.7 352 251.3 384 249.8C416 248.3 448 252.7 480 266.7C512 280.7 544 304.3 576 307.3C608 310.3 640 292.7 672 280C704 267.3 736 259.7 768 267.2C800 274.7 832 297.3 864 308.7C896 320 928 320 944 320L960 320L960 541L944 541C928 541 896 541 864 541C832 541 800 541 768 541C736 541 704 541 672 541C640 541 608 541 576 541C544 541 512 541 480 541C448 541 416 541 384 541C352 541 320 541 288 541C256 541 224 541 192 541C160 541 128 541 96 541C64 541 32 541 16 541L0 541Z" fill="#5a5fec"></path><path d="M0 297L16 293C32 289 64 281 96 280.3C128 279.7 160 286.3 192 298.2C224 310 256 327 288 328.7C320 330.3 352 316.7 384 312.5C416 308.3 448 313.7 480 320.3C512 327 544 335 576 329.5C608 324 640 305 672 295.3C704 285.7 736 285.3 768 288.7C800 292 832 299 864 304.5C896 310 928 314 944 316L960 318L960 541L944 541C928 541 896 541 864 541C832 541 800 541 768 541C736 541 704 541 672 541C640 541 608 541 576 541C544 541 512 541 480 541C448 541 416 541 384 541C352 541 320 541 288 541C256 541 224 541 192 541C160 541 128 541 96 541C64 541 32 541 16 541L0 541Z" fill="#5658e7"></path><path d="M0 358L16 359.2C32 360.3 64 362.7 96 365.5C128 368.3 160 371.7 192 359.2C224 346.7 256 318.3 288 319.8C320 321.3 352 352.7 384 362.3C416 372 448 360 480 344.2C512 328.3 544 308.7 576 300.7C608 292.7 640 296.3 672 297.8C704 299.3 736 298.7 768 305C800 311.3 832 324.7 864 334.7C896 344.7 928 351.3 944 354.7L960 358L960 541L944 541C928 541 896 541 864 541C832 541 800 541 768 541C736 541 704 541 672 541C640 541 608 541 576 541C544 541 512 541 480 541C448 541 416 541 384 541C352 541 320 541 288 541C256 541 224 541 192 541C160 541 128 541 96 541C64 541 32 541 16 541L0 541Z" fill="#5150e2"></path><path d="M0 396L16 398C32 400 64 404 96 398.2C128 392.3 160 376.7 192 371.8C224 367 256 373 288 380.7C320 388.3 352 397.7 384 401.3C416 405 448 403 480 391.8C512 380.7 544 360.3 576 350.3C608 340.3 640 340.7 672 341.2C704 341.7 736 342.3 768 353C800 363.7 832 384.3 864 395.2C896 406 928 407 944 407.5L960 408L960 541L944 541C928 541 896 541 864 541C832 541 800 541 768 541C736 541 704 541 672 541C640 541 608 541 576 541C544 541 512 541 480 541C448 541 416 541 384 541C352 541 320 541 288 541C256 541 224 541 192 541C160 541 128 541 96 541C64 541 32 541 16 541L0 541Z" fill="#4d48dd"></path><path d="M0 431L16 428.5C32 426 64 421 96 418.2C128 415.3 160 414.7 192 418.3C224 422 256 430 288 433.7C320 437.3 352 436.7 384 424.5C416 412.3 448 388.7 480 383.2C512 377.7 544 390.3 576 391.3C608 392.3 640 381.7 672 385.5C704 389.3 736 407.7 768 416C800 424.3 832 422.7 864 412.5C896 402.3 928 383.7 944 374.3L960 365L960 541L944 541C928 541 896 541 864 541C832 541 800 541 768 541C736 541 704 541 672 541C640 541 608 541 576 541C544 541 512 541 480 541C448 541 416 541 384 541C352 541 320 541 288 541C256 541 224 541 192 541C160 541 128 541 96 541C64 541 32 541 16 541L0 541Z" fill="#4940d7"></path><path d="M0 446L16 442.5C32 439 64 432 96 424.8C128 417.7 160 410.3 192 408.8C224 407.3 256 411.7 288 418.3C320 425 352 434 384 435.2C416 436.3 448 429.7 480 425.7C512 421.7 544 420.3 576 420.3C608 420.3 640 421.7 672 426.2C704 430.7 736 438.3 768 435.8C800 433.3 832 420.7 864 421.7C896 422.7 928 437.3 944 444.7L960 452L960 541L944 541C928 541 896 541 864 541C832 541 800 541 768 541C736 541 704 541 672 541C640 541 608 541 576 541C544 541 512 541 480 541C448 541 416 541 384 541C352 541 320 541 288 541C256 541 224 541 192 541C160 541 128 541 96 541C64 541 32 541 16 541L0 541Z" fill="#4537d2"></path><path d="M0 440L16 446.7C32 453.3 64 466.7 96 475.8C128 485 160 490 192 489.2C224 488.3 256 481.7 288 480.3C320 479 352 483 384 476.8C416 470.7 448 454.3 480 452C512 449.7 544 461.3 576 461.2C608 461 640 449 672 448.5C704 448 736 459 768 460.5C800 462 832 454 864 453.2C896 452.3 928 458.7 944 461.8L960 465L960 541L944 541C928 541 896 541 864 541C832 541 800 541 768 541C736 541 704 541 672 541C640 541 608 541 576 541C544 541 512 541 480 541C448 541 416 541 384 541C352 541 320 541 288 541C256 541 224 541 192 541C160 541 128 541 96 541C64 541 32 541 16 541L0 541Z" fill="#412ecd"></path><path d="M0 501L16 504C32 507 64 513 96 510.7C128 508.3 160 497.7 192 495.2C224 492.7 256 498.3 288 500.5C320 502.7 352 501.3 384 503.5C416 505.7 448 511.3 480 513.7C512 516 544 515 576 510.2C608 505.3 640 496.7 672 493.3C704 490 736 492 768 490.2C800 488.3 832 482.7 864 481C896 479.3 928 481.7 944 482.8L960 484L960 541L944 541C928 541 896 541 864 541C832 541 800 541 768 541C736 541 704 541 672 541C640 541 608 541 576 541C544 541 512 541 480 541C448 541 416 541 384 541C352 541 320 541 288 541C256 541 224 541 192 541C160 541 128 541 96 541C64 541 32 541 16 541L0 541Z" fill="#3d24c7"></path></svg>