<svg id="visual" viewBox="0 0 960 540" width="960" height="540" xmlns="http://www.w3.org/2000/svg" xmlns:xlink="http://www.w3.org/1999/xlink" version="1.1"><path d="M0 98L14.5 125C29 152 58 206 87.2 222.2C116.3 238.3 145.7 216.7 174.8 195.2C204 173.7 233 152.3 262 152.3C291 152.3 320 173.7 349 182.7C378 191.7 407 188.3 436.2 182.2C465.3 176 494.7 167 523.8 176C553 185 582 212 611 209.2C640 206.3 669 173.7 698 161C727 148.3 756 155.7 785.2 171C814.3 186.3 843.7 209.7 872.8 218.7C902 227.7 931 222.3 945.5 219.7L960 217L960 0L945.5 0C931 0 902 0 872.8 0C843.7 0 814.3 0 785.2 0C756 0 727 0 698 0C669 0 640 0 611 0C582 0 553 0 523.8 0C494.7 0 465.3 0 436.2 0C407 0 378 0 349 0C320 0 291 0 262 0C233 0 204 0 174.8 0C145.7 0 116.3 0 87.2 0C58 0 29 0 14.5 0L0 0Z" fill="#212d46"></path><path d="M0 222L14.5 235.5C29 249 58 276 87.2 293.2C116.3 310.3 145.7 317.7 174.8 300.7C204 283.7 233 242.3 262 238.7C291 235 320 269 349 283.3C378 297.7 407 292.3 436.2 287.8C465.3 283.3 494.7 279.7 523.8 281.5C553 283.3 582 290.7 611 287.2C640 283.7 669 269.3 698 257.7C727 246 756 237 785.2 252.3C814.3 267.7 843.7 307.3 872.8 326.2C902 345 931 343 945.5 342L960 341L960 215L945.5 217.7C931 220.3 902 225.7 872.8 216.7C843.7 207.7 814.3 184.3 785.2 169C756 153.7 727 146.3 698 159C669 171.7 640 204.3 611 207.2C582 210 553 183 523.8 174C494.7 165 465.3 174 436.2 180.2C407 186.3 378 189.7 349 180.7C320 171.7 291 150.3 262 150.3C233 150.3 204 171.7 174.8 193.2C145.7 214.7 116.3 236.3 87.2 220.2C58 204 29 150 14.5 123L0 96Z" fill="#171e2e"></path><path d="M0 395L14.5 393.2C29 391.3 58 387.7 87.2 388.7C116.3 389.7 145.7 395.3 174.8 398.2C204 401 233 401 262 394.7C291 388.3 320 375.7 349 370.2C378 364.7 407 366.3 436.2 369.8C465.3 373.3 494.7 378.7 523.8 389.5C553 400.3 582 416.7 611 422.2C640 427.7 669 422.3 698 411.5C727 400.7 756 384.3 785.2 385.2C814.3 386 843.7 404 872.8 412.2C902 420.3 931 418.7 945.5 417.8L960 417L960 339L945.5 340C931 341 902 343 872.8 324.2C843.7 305.3 814.3 265.7 785.2 250.3C756 235 727 244 698 255.7C669 267.3 640 281.7 611 285.2C582 288.7 553 281.3 523.8 279.5C494.7 277.7 465.3 281.3 436.2 285.8C407 290.3 378 295.7 349 281.3C320 267 291 233 262 236.7C233 240.3 204 281.7 174.8 298.7C145.7 315.7 116.3 308.3 87.2 291.2C58 274 29 247 14.5 233.5L0 220Z" fill="#0a0e17"></path><path d="M0 460L14.5 453.7C29 447.3 58 434.7 87.2 437.3C116.3 440 145.7 458 174.8 468.8C204 479.7 233 483.3 262 478.8C291 474.3 320 461.7 349 451.8C378 442 407 435 436.2 438.7C465.3 442.3 494.7 456.7 523.8 468.3C553 480 582 489 611 491.7C640 494.3 669 490.7 698 483.5C727 476.3 756 465.7 785.2 466.5C814.3 467.3 843.7 479.7 872.8 487.7C902 495.7 931 499.3 945.5 501.2L960 503L960 415L945.5 415.8C931 416.7 902 418.3 872.8 410.2C843.7 402 814.3 384 785.2 383.2C756 382.3 727 398.7 698 409.5C669 420.3 640 425.7 611 420.2C582 414.7 553 398.3 523.8 387.5C494.7 376.7 465.3 371.3 436.2 367.8C407 364.3 378 362.7 349 368.2C320 373.7 291 386.3 262 392.7C233 399 204 399 174.8 396.2C145.7 393.3 116.3 387.7 87.2 386.7C58 385.7 29 389.3 14.5 391.2L0 393Z" fill="#080d15"></path><path d="M0 541L14.5 541C29 541 58 541 87.2 541C116.3 541 145.7 541 174.8 541C204 541 233 541 262 541C291 541 320 541 349 541C378 541 407 541 436.2 541C465.3 541 494.7 541 523.8 541C553 541 582 541 611 541C640 541 669 541 698 541C727 541 756 541 785.2 541C814.3 541 843.7 541 872.8 541C902 541 931 541 945.5 541L960 541L960 501L945.5 499.2C931 497.3 902 493.7 872.8 485.7C843.7 477.7 814.3 465.3 785.2 464.5C756 463.7 727 474.3 698 481.5C669 488.7 640 492.3 611 489.7C582 487 553 478 523.8 466.3C494.7 454.7 465.3 440.3 436.2 436.7C407 433 378 440 349 449.8C320 459.7 291 472.3 262 476.8C233 481.3 204 477.7 174.8 466.8C145.7 456 116.3 438 87.2 435.3C58 432.7 29 445.3 14.5 451.7L0 458Z" fill="#070b13"></path></svg>