<svg width="960" height="214" viewBox="0 0 960 214" fill="none" xmlns="http://www.w3.org/2000/svg">
<g clip-path="url(#clip0_6_17)">
<path d="M-11 58.3386L12.275 52.4344C35.6521 46.6708 82.2021 34.8625 128.854 37.9552C175.506 41.0478 222.056 58.7603 268.708 55.1054C315.36 51.3098 361.91 26.0063 408.767 25.0222C455.521 24.1788 502.479 47.5143 549.233 61.4312C596.09 75.2076 642.64 79.4248 689.292 67.8977C735.944 56.5111 782.494 29.2395 829.146 29.8018C875.798 30.2236 922.348 58.3386 945.725 72.3961L969 86.4536V220H945.725C922.348 220 875.798 220 829.146 220C782.494 220 735.944 220 689.292 220C642.64 220 596.09 220 549.233 220C502.479 220 455.521 220 408.767 220C361.91 220 315.36 220 268.708 220C222.056 220 175.506 220 128.854 220C82.2021 220 35.6521 220 12.275 220H-11V58.3386Z" fill="#171E2E"/>
</g>
<defs>
<clipPath id="clip0_6_17">
<rect width="960" height="214" fill="white"/>
</clipPath>
</defs>
</svg>
