<svg id="visual" viewBox="0 0 960 540" width="960" height="540" xmlns="http://www.w3.org/2000/svg" xmlns:xlink="http://www.w3.org/1999/xlink" version="1.1"><g stroke-width="1" stroke-linejoin="bevel"><path d="M463.7 261L520.3 232L512.3 159Z" fill="#15384f" stroke="#15384f"></path><path d="M512.3 159L405.7 141L463.7 261Z" fill="#205a7a" stroke="#205a7a"></path><path d="M452.7 118L405.7 141L512.3 159Z" fill="#277297" stroke="#277297"></path><path d="M632 128L551.3 116L512.3 159Z" fill="#246688" stroke="#246688"></path><path d="M512.3 159L551.3 116L452.7 118Z" fill="#297ea6" stroke="#297ea6"></path><path d="M405.7 141L355 276L463.7 261Z" fill="#1d4e6b" stroke="#1d4e6b"></path><path d="M297 82L332 141L405.7 141Z" fill="#297ea6" stroke="#297ea6"></path><path d="M405.7 141L332 141L355 276Z" fill="#19435d" stroke="#19435d"></path><path d="M355 276L457.7 374L463.7 261Z" fill="#081a28" stroke="#081a28"></path><path d="M463.7 261L509.3 399L520.3 232Z" fill="#1d4e6b" stroke="#1d4e6b"></path><path d="M520.3 232L632 128L512.3 159Z" fill="#277297" stroke="#277297"></path><path d="M642 260L632 128L520.3 232Z" fill="#277297" stroke="#277297"></path><path d="M654 343L642 260L520.3 232Z" fill="#19435d" stroke="#19435d"></path><path d="M642 260L664 158L632 128Z" fill="#1d4e6b" stroke="#1d4e6b"></path><path d="M527.3 0L452.7 118L551.3 116Z" fill="#19435d" stroke="#19435d"></path><path d="M527.3 0L444.7 0L452.7 118Z" fill="#1d4e6b" stroke="#1d4e6b"></path><path d="M452.7 118L444.7 0L405.7 141Z" fill="#00101c" stroke="#00101c"></path><path d="M457.7 374L509.3 399L463.7 261Z" fill="#15384f" stroke="#15384f"></path><path d="M444.7 0L297 82L405.7 141Z" fill="#277297" stroke="#277297"></path><path d="M332 141L236.3 198L355 276Z" fill="#00101c" stroke="#00101c"></path><path d="M655 0L527.3 0L551.3 116Z" fill="#0c2435" stroke="#0c2435"></path><path d="M655 0L551.3 116L632 128Z" fill="#297ea6" stroke="#297ea6"></path><path d="M297 82L236.3 198L332 141Z" fill="#15384f" stroke="#15384f"></path><path d="M355 276L308 378L457.7 374Z" fill="#19435d" stroke="#19435d"></path><path d="M509.3 399L654 343L520.3 232Z" fill="#19435d" stroke="#19435d"></path><path d="M642 260L756.7 245L664 158Z" fill="#246688" stroke="#246688"></path><path d="M245.3 323L308 378L355 276Z" fill="#15384f" stroke="#15384f"></path><path d="M457.7 374L421.7 468L509.3 399Z" fill="#081a28" stroke="#081a28"></path><path d="M297 82L252.3 74L236.3 198Z" fill="#277297" stroke="#277297"></path><path d="M302 0L252.3 74L297 82Z" fill="#1d4e6b" stroke="#1d4e6b"></path><path d="M236.3 198L245.3 323L355 276Z" fill="#19435d" stroke="#19435d"></path><path d="M444.7 0L302 0L297 82Z" fill="#15384f" stroke="#15384f"></path><path d="M346 452L421.7 468L457.7 374Z" fill="#112e42" stroke="#112e42"></path><path d="M509.3 399L662 416L654 343Z" fill="#205a7a" stroke="#205a7a"></path><path d="M757.7 114L655 0L632 128Z" fill="#19435d" stroke="#19435d"></path><path d="M662 416L712.7 331L654 343Z" fill="#00101c" stroke="#00101c"></path><path d="M654 343L712.7 331L642 260Z" fill="#205a7a" stroke="#205a7a"></path><path d="M664 158L757.7 114L632 128Z" fill="#15384f" stroke="#15384f"></path><path d="M308 378L346 452L457.7 374Z" fill="#19435d" stroke="#19435d"></path><path d="M344 540L346 452L227.3 540Z" fill="#277297" stroke="#277297"></path><path d="M421.7 468L568.3 467L509.3 399Z" fill="#205a7a" stroke="#205a7a"></path><path d="M568.3 467L662 416L509.3 399Z" fill="#19435d" stroke="#19435d"></path><path d="M712.7 331L756.7 245L642 260Z" fill="#00101c" stroke="#00101c"></path><path d="M756.7 245L755.7 145L664 158Z" fill="#246688" stroke="#246688"></path><path d="M236.3 198L176.3 238L245.3 323Z" fill="#246688" stroke="#246688"></path><path d="M179.3 483L346 452L308 378Z" fill="#277297" stroke="#277297"></path><path d="M116.7 104L176.3 238L236.3 198Z" fill="#19435d" stroke="#19435d"></path><path d="M755.7 145L757.7 114L664 158Z" fill="#081a28" stroke="#081a28"></path><path d="M858.3 186L757.7 114L755.7 145Z" fill="#0c2435" stroke="#0c2435"></path><path d="M421.7 468L451.7 540L568.3 467Z" fill="#205a7a" stroke="#205a7a"></path><path d="M653 540L732.7 416L662 416Z" fill="#205a7a" stroke="#205a7a"></path><path d="M344 540L451.7 540L421.7 468Z" fill="#205a7a" stroke="#205a7a"></path><path d="M662 416L732.7 416L712.7 331Z" fill="#0c2435" stroke="#0c2435"></path><path d="M712.7 331L832.3 249L756.7 245Z" fill="#1d4e6b" stroke="#1d4e6b"></path><path d="M653 540L662 416L568.3 467Z" fill="#00101c" stroke="#00101c"></path><path d="M451.7 540L554.3 540L568.3 467Z" fill="#19435d" stroke="#19435d"></path><path d="M302 0L173.3 0L252.3 74Z" fill="#112e42" stroke="#112e42"></path><path d="M252.3 74L116.7 104L236.3 198Z" fill="#205a7a" stroke="#205a7a"></path><path d="M882.3 51L765.7 0L757.7 114Z" fill="#112e42" stroke="#112e42"></path><path d="M757.7 114L765.7 0L655 0Z" fill="#00101c" stroke="#00101c"></path><path d="M179.3 483L308 378L245.3 323Z" fill="#00101c" stroke="#00101c"></path><path d="M346 452L344 540L421.7 468Z" fill="#15384f" stroke="#15384f"></path><path d="M173.3 0L116.7 104L252.3 74Z" fill="#205a7a" stroke="#205a7a"></path><path d="M860.3 383L832.3 249L712.7 331Z" fill="#246688" stroke="#246688"></path><path d="M756.7 245L858.3 186L755.7 145Z" fill="#0c2435" stroke="#0c2435"></path><path d="M116.7 104L89.7 170L176.3 238Z" fill="#277297" stroke="#277297"></path><path d="M176.3 238L88.7 338L245.3 323Z" fill="#297ea6" stroke="#297ea6"></path><path d="M89.7 170L92.7 276L176.3 238Z" fill="#112e42" stroke="#112e42"></path><path d="M554.3 540L653 540L568.3 467Z" fill="#112e42" stroke="#112e42"></path><path d="M832.3 249L858.3 186L756.7 245Z" fill="#1d4e6b" stroke="#1d4e6b"></path><path d="M0 341L88.7 338L92.7 276Z" fill="#19435d" stroke="#19435d"></path><path d="M92.7 276L88.7 338L176.3 238Z" fill="#15384f" stroke="#15384f"></path><path d="M99.7 427L179.3 483L245.3 323Z" fill="#081a28" stroke="#081a28"></path><path d="M0 85L0 213L89.7 170Z" fill="#00101c" stroke="#00101c"></path><path d="M173.3 0L106.7 0L116.7 104Z" fill="#081a28" stroke="#081a28"></path><path d="M179.3 483L227.3 540L346 452Z" fill="#112e42" stroke="#112e42"></path><path d="M816.3 482L860.3 383L732.7 416Z" fill="#205a7a" stroke="#205a7a"></path><path d="M732.7 416L860.3 383L712.7 331Z" fill="#205a7a" stroke="#205a7a"></path><path d="M960 263L960 203L858.3 186Z" fill="#19435d" stroke="#19435d"></path><path d="M88.7 338L99.7 427L245.3 323Z" fill="#00101c" stroke="#00101c"></path><path d="M179.3 483L113.7 540L227.3 540Z" fill="#19435d" stroke="#19435d"></path><path d="M858.3 186L882.3 51L757.7 114Z" fill="#0c2435" stroke="#0c2435"></path><path d="M960 76L882.3 51L858.3 186Z" fill="#297ea6" stroke="#297ea6"></path><path d="M653 540L757.7 540L732.7 416Z" fill="#112e42" stroke="#112e42"></path><path d="M757.7 540L816.3 482L732.7 416Z" fill="#246688" stroke="#246688"></path><path d="M960 0L890.3 0L882.3 51Z" fill="#0c2435" stroke="#0c2435"></path><path d="M882.3 51L890.3 0L765.7 0Z" fill="#0c2435" stroke="#0c2435"></path><path d="M89.7 170L0 213L92.7 276Z" fill="#081a28" stroke="#081a28"></path><path d="M88.7 338L0 341L99.7 427Z" fill="#15384f" stroke="#15384f"></path><path d="M0 85L89.7 170L116.7 104Z" fill="#081a28" stroke="#081a28"></path><path d="M0 213L0 249L92.7 276Z" fill="#19435d" stroke="#19435d"></path><path d="M106.7 0L0 85L116.7 104Z" fill="#00101c" stroke="#00101c"></path><path d="M0 249L0 341L92.7 276Z" fill="#1d4e6b" stroke="#1d4e6b"></path><path d="M99.7 427L113.7 540L179.3 483Z" fill="#081a28" stroke="#081a28"></path><path d="M0 458L113.7 540L99.7 427Z" fill="#00101c" stroke="#00101c"></path><path d="M960 263L832.3 249L960 334Z" fill="#112e42" stroke="#112e42"></path><path d="M960 263L858.3 186L832.3 249Z" fill="#277297" stroke="#277297"></path><path d="M960 334L832.3 249L860.3 383Z" fill="#277297" stroke="#277297"></path><path d="M960 203L960 76L858.3 186Z" fill="#205a7a" stroke="#205a7a"></path><path d="M960 431L960 334L860.3 383Z" fill="#0c2435" stroke="#0c2435"></path><path d="M106.7 0L0 0L0 85Z" fill="#081a28" stroke="#081a28"></path><path d="M757.7 540L864.3 540L816.3 482Z" fill="#277297" stroke="#277297"></path><path d="M816.3 482L960 431L860.3 383Z" fill="#15384f" stroke="#15384f"></path><path d="M960 76L960 0L882.3 51Z" fill="#246688" stroke="#246688"></path><path d="M0 341L0 458L99.7 427Z" fill="#112e42" stroke="#112e42"></path><path d="M864.3 540L960 431L816.3 482Z" fill="#00101c" stroke="#00101c"></path><path d="M0 458L0 540L113.7 540Z" fill="#277297" stroke="#277297"></path><path d="M864.3 540L960 540L960 431Z" fill="#0c2435" stroke="#0c2435"></path></g></svg>