<svg id="visual" viewBox="0 0 960 540" width="960" height="540" xmlns="http://www.w3.org/2000/svg" xmlns:xlink="http://www.w3.org/1999/xlink" version="1.1"><rect x="0" y="0" width="960" height="540" fill="#001220"></rect><defs><linearGradient id="grad1_0" x1="43.8%" y1="0%" x2="100%" y2="100%"><stop offset="14.444444444444446%" stop-color="#001220" stop-opacity="1"></stop><stop offset="85.55555555555554%" stop-color="#001220" stop-opacity="1"></stop></linearGradient></defs><defs><linearGradient id="grad2_0" x1="0%" y1="0%" x2="56.3%" y2="100%"><stop offset="14.444444444444446%" stop-color="#001220" stop-opacity="1"></stop><stop offset="85.55555555555554%" stop-color="#001220" stop-opacity="1"></stop></linearGradient></defs><g transform="translate(960, 0)"><path d="M0 486C-71.8 487.1 -143.6 488.3 -186 449C-228.4 409.7 -241.5 330.1 -282.8 282.8C-324.2 235.6 -393.8 220.8 -432.4 179.1C-470.9 137.4 -478.5 68.7 -486 0L0 0Z" fill="#2e2b54"></path></g><g transform="translate(0, 540)"><path d="M0 -486C50.9 -446.4 101.7 -406.9 160.3 -387.1C219 -367.3 285.4 -367.3 337.3 -337.3C389.2 -307.3 426.6 -247.2 449 -186C471.4 -124.8 478.7 -62.4 486 0L0 0Z" fill="#2e2b54"></path></g></svg>